# Blender 3.3.1
# www.blender.org
o Plane
v -1.000000 0.955543 0.294853
v 1.000000 0.955543 0.294853
v -1.000000 -0.955543 -0.294853
v 1.000000 -0.955543 -0.294853
v 0.000000 0.955543 0.294853
v 0.000000 -0.955543 -0.294853
v -0.500000 -0.955543 -0.294853
v -0.500000 0.955543 0.294853
v 0.500000 0.955543 0.294853
v 0.500000 -0.955543 -0.294853
v -1.000000 0.440305 0.135865
v 1.000000 0.440305 0.135865
v 0.000000 0.440305 0.135865
v -0.500000 0.440305 0.135865
v 0.500000 0.440305 0.135865
v 1.000000 -0.552454 -0.170471
v 0.000000 -0.552454 -0.170471
v -0.500000 -0.552454 -0.170471
v 0.500000 -0.552454 -0.170471
v -1.000000 -0.552454 -0.170471
v -1.000000 0.161579 0.049858
v 1.000000 0.161579 0.049858
v 0.000000 0.161579 0.049858
v -0.500000 0.161579 0.049858
v 0.500000 0.161579 0.049858
v 1.000000 -0.431727 -0.133218
v 0.000000 -0.431727 -0.133218
v -0.500000 -0.431727 -0.133218
v 0.500000 -0.431727 -0.133218
v -1.000000 -0.431727 -0.133218
v 0.403505 -0.955543 -0.294853
v 0.403505 0.955543 0.294853
v 0.403505 0.440305 0.135865
v 0.403505 -0.552454 -0.170471
v 0.403505 0.161579 0.049858
v 0.403505 -0.431727 -0.133218
v -0.250000 0.955543 0.294853
v -0.250000 -0.955543 -0.294853
v -0.250000 0.440305 0.135865
v -0.250000 -0.552454 -0.170471
v -0.250000 0.161579 0.049858
v -0.250000 -0.431727 -0.133218
vn -0.0000 0.2949 -0.9555
vt 0.000000 0.000000
vt 1.000000 0.000000
vt 0.000000 1.000000
vt 1.000000 1.000000
vt 0.500000 0.000000
vt 0.500000 1.000000
vt 0.250000 1.000000
vt 0.250000 0.000000
vt 0.750000 0.000000
vt 0.750000 1.000000
vt 0.000000 0.269605
vt 1.000000 0.269605
vt 0.500000 0.269605
vt 0.250000 0.269605
vt 0.750000 0.269605
vt 1.000000 0.789079
vt 0.500000 0.789079
vt 0.250000 0.789079
vt 0.750000 0.789079
vt 0.000000 0.789079
vt 0.000000 0.415452
vt 1.000000 0.415452
vt 0.500000 0.415452
vt 0.250000 0.415452
vt 0.750000 0.415452
vt 1.000000 0.725907
vt 0.500000 0.725907
vt 0.250000 0.725907
vt 0.750000 0.725907
vt 0.000000 0.725907
vt 0.701753 1.000000
vt 0.701753 0.000000
vt 0.701753 0.269605
vt 0.701753 0.789079
vt 0.701753 0.415452
vt 0.701753 0.725907
vt 0.375000 0.000000
vt 0.375000 1.000000
vt 0.375000 0.269605
vt 0.375000 0.789079
vt 0.375000 0.415452
vt 0.375000 0.725907
s 0
f 16/16/1 10/10/1 19/19/1
f 17/17/1 38/38/1 40/40/1
f 18/18/1 3/3/1 20/20/1
f 19/19/1 31/31/1 34/34/1
f 9/9/1 33/33/1 32/32/1
f 8/8/1 11/11/1 1/1/1
f 5/5/1 39/39/1 37/37/1
f 2/2/1 15/15/1 9/9/1
f 29/29/1 34/34/1 36/36/1
f 28/28/1 20/20/1 30/30/1
f 27/27/1 40/40/1 42/42/1
f 26/26/1 19/19/1 29/29/1
f 12/12/1 25/25/1 15/15/1
f 13/13/1 41/41/1 39/39/1
f 14/14/1 21/21/1 11/11/1
f 15/15/1 35/35/1 33/33/1
f 22/22/1 29/29/1 25/25/1
f 23/23/1 42/42/1 41/41/1
f 21/21/1 28/28/1 30/30/1
f 25/25/1 36/36/1 35/35/1
f 35/35/1 27/27/1 23/23/1
f 33/33/1 23/23/1 13/13/1
f 36/36/1 17/17/1 27/27/1
f 32/32/1 13/13/1 5/5/1
f 34/34/1 6/6/1 17/17/1
f 41/41/1 28/28/1 24/24/1
f 39/39/1 24/24/1 14/14/1
f 42/42/1 18/18/1 28/28/1
f 37/37/1 14/14/1 8/8/1
f 40/40/1 7/7/1 18/18/1
f 16/16/1 4/4/1 10/10/1
f 17/17/1 6/6/1 38/38/1
f 18/18/1 7/7/1 3/3/1
f 19/19/1 10/10/1 31/31/1
f 9/9/1 15/15/1 33/33/1
f 8/8/1 14/14/1 11/11/1
f 5/5/1 13/13/1 39/39/1
f 2/2/1 12/12/1 15/15/1
f 29/29/1 19/19/1 34/34/1
f 28/28/1 18/18/1 20/20/1
f 27/27/1 17/17/1 40/40/1
f 26/26/1 16/16/1 19/19/1
f 12/12/1 22/22/1 25/25/1
f 13/13/1 23/23/1 41/41/1
f 14/14/1 24/24/1 21/21/1
f 15/15/1 25/25/1 35/35/1
f 22/22/1 26/26/1 29/29/1
f 23/23/1 27/27/1 42/42/1
f 21/21/1 24/24/1 28/28/1
f 25/25/1 29/29/1 36/36/1
f 35/35/1 36/36/1 27/27/1
f 33/33/1 35/35/1 23/23/1
f 36/36/1 34/34/1 17/17/1
f 32/32/1 33/33/1 13/13/1
f 34/34/1 31/31/1 6/6/1
f 41/41/1 42/42/1 28/28/1
f 39/39/1 41/41/1 24/24/1
f 42/42/1 40/40/1 18/18/1
f 37/37/1 39/39/1 14/14/1
f 40/40/1 38/38/1 7/7/1
