# Blender 3.3.1
# www.blender.org
o Plane
v -1.000000 -0.998762 0.049744
v -1.000000 0.998762 -0.049744
v 1.000000 0.998762 -0.049744
v -0.000000 -0.998762 0.049744
v 0.000000 0.998762 -0.049744
v -0.500000 0.998762 -0.049744
v -0.500000 -0.998762 0.049744
v 0.500000 0.998762 -0.049744
v -1.000000 -0.460220 0.022922
v -0.000000 -0.460220 0.022922
v -0.500000 -0.460220 0.022922
v 1.000000 0.577442 -0.028760
v 0.000000 0.577442 -0.028760
v -0.500000 0.577442 -0.028760
v 0.500000 0.577442 -0.028760
v -1.000000 0.577442 -0.028760
v -1.000000 -0.168887 0.008412
v -0.000000 -0.168887 0.008412
v -0.500000 -0.168887 0.008412
v 0.000000 0.451254 -0.022475
v -0.500000 0.451254 -0.022475
v -1.000000 0.451254 -0.022475
v 0.403505 0.998762 -0.049744
v 0.403505 0.577442 -0.028760
v -0.250000 -0.998762 0.049744
v -0.250000 0.998762 -0.049744
v -0.250000 -0.460220 0.022922
v -0.250000 0.577442 -0.028760
v -0.250000 -0.168887 0.008412
v -0.250000 0.451254 -0.022475
v 0.303141 -0.998762 0.049744
vn -0.0000 0.0497 0.9988
vt 0.000000 0.000000
vt 0.000000 1.000000
vt 1.000000 1.000000
vt 0.500000 0.000000
vt 0.500000 1.000000
vt 0.250000 1.000000
vt 0.250000 0.000000
vt 0.750000 1.000000
vt 0.000000 0.269605
vt 0.500000 0.269605
vt 0.250000 0.269605
vt 1.000000 0.789079
vt 0.500000 0.789079
vt 0.250000 0.789079
vt 0.750000 0.789079
vt 0.000000 0.789079
vt 0.000000 0.415452
vt 0.500000 0.415452
vt 0.250000 0.415452
vt 0.500000 0.725907
vt 0.250000 0.725907
vt 0.000000 0.725907
vt 0.701753 1.000000
vt 0.701753 0.789079
vt 0.375000 0.000000
vt 0.375000 1.000000
vt 0.375000 0.269605
vt 0.375000 0.789079
vt 0.375000 0.415452
vt 0.375000 0.725907
vt 0.651570 0.000000
s 0
f 12/12/1 8/8/1 15/15/1
f 13/13/1 26/26/1 28/28/1
f 14/14/1 2/2/1 16/16/1
f 15/15/1 23/23/1 24/24/1
f 7/7/1 9/9/1 1/1/1
f 4/4/1 27/27/1 25/25/1
f 21/21/1 16/16/1 22/22/1
f 20/20/1 28/28/1 30/30/1
f 10/10/1 29/29/1 27/27/1
f 11/11/1 17/17/1 9/9/1
f 18/18/1 30/30/1 29/29/1
f 17/17/1 21/21/1 22/22/1
f 10/10/1 31/31/1 15/15/1
f 24/24/1 5/5/1 13/13/1
f 29/29/1 21/21/1 19/19/1
f 27/27/1 19/19/1 11/11/1
f 30/30/1 14/14/1 21/21/1
f 25/25/1 11/11/1 7/7/1
f 28/28/1 6/6/1 14/14/1
f 12/12/1 3/3/1 8/8/1
f 13/13/1 5/5/1 26/26/1
f 14/14/1 6/6/1 2/2/1
f 15/15/1 8/8/1 23/23/1
f 7/7/1 11/11/1 9/9/1
f 4/4/1 10/10/1 27/27/1
f 21/21/1 14/14/1 16/16/1
f 20/20/1 13/13/1 28/28/1
f 10/10/1 18/18/1 29/29/1
f 11/11/1 19/19/1 17/17/1
f 18/18/1 20/20/1 30/30/1
f 17/17/1 19/19/1 21/21/1
f 15/15/1 24/24/1 13/13/1
f 20/20/1 18/18/1 10/10/1
f 15/15/1 13/13/1 20/20/1
f 31/31/1 12/12/1 15/15/1
f 10/10/1 4/4/1 31/31/1
f 15/15/1 20/20/1 10/10/1
f 24/24/1 23/23/1 5/5/1
f 29/29/1 30/30/1 21/21/1
f 27/27/1 29/29/1 19/19/1
f 30/30/1 28/28/1 14/14/1
f 25/25/1 27/27/1 11/11/1
f 28/28/1 26/26/1 6/6/1
